<svg viewBox="0 0 637 153" fill="none" xmlns="http://www.w3.org/2000/svg">
<circle cx="76.3361" cy="76.3361" r="76.3361" fill="#EE384E"/>
<path d="M117.276 67H95.5576C95.7139 65.151 95.6097 63.4844 95.2451 62C94.8805 60.5156 94.2555 59.2396 93.3701 58.1719C92.4847 57.0781 91.3258 56.2448 89.8936 55.6719C88.4613 55.099 86.7555 54.8125 84.7764 54.8125C80.9743 54.8125 77.5758 55.763 74.5811 57.6641C71.5863 59.5391 69.0993 62.2344 67.1201 65.75C65.141 69.2396 63.7347 73.4062 62.9014 78.25C62.1722 82.9375 62.1462 86.8307 62.8232 89.9297C63.5264 93.0286 64.8936 95.3464 66.9248 96.8828C68.9821 98.4193 71.6514 99.1875 74.9326 99.1875C77.1201 99.1875 79.1253 98.9271 80.9482 98.4062C82.7972 97.8854 84.4378 97.1432 85.8701 96.1797C87.3285 95.1901 88.5654 94.0182 89.5811 92.6641C90.6227 91.2839 91.417 89.7604 91.9639 88.0937H113.839C113.006 91.4792 111.521 94.9427 109.386 98.4844C107.25 102 104.49 105.242 101.104 108.211C97.7191 111.154 93.7347 113.536 89.1514 115.359C84.568 117.182 79.4118 118.094 73.6826 118.094C66.1826 118.094 59.7113 116.453 54.2686 113.172C48.8519 109.891 44.9196 105.099 42.4717 98.7969C40.0498 92.4948 39.568 84.8125 41.0264 75.75C42.4847 67 45.3623 59.6693 49.6592 53.7578C53.9561 47.8464 59.1774 43.3932 65.3232 40.3984C71.4691 37.4036 78.0055 35.9062 84.9326 35.9062C90.167 35.9062 94.8545 36.5964 98.9951 37.9766C103.162 39.3568 106.664 41.375 109.503 44.0312C112.368 46.6615 114.477 49.9036 115.831 53.7578C117.185 57.612 117.667 62.026 117.276 67Z" fill="white"/>
  <text font-weight="bold" transform="matrix(1.54948 0 0 0.947914 -90.6777 -10.5882)" stroke="null" xml:space="preserve" text-anchor="start" font-family="'Antonio'" font-size="120" id="svg_5" y="137.10442" x="169" stroke-width="0" fill="#ee384e">Mall</text></svg>
